<svg xmlns="http://www.w3.org/2000/svg" width="161" height="38" viewBox="0 0 161 38" fill="none"><path d="M8.76225 28.4049L0.000488281 7.47498H5.69036L12.4185 24.2115L11.172 24.2947L17.3186 7.47637H22.8419L14.0385 28.4063H8.76503L8.76225 28.4049ZM25.7666 28.4049V7.68181H31.0401L31.0817 28.4049H25.7666ZM25.6417 4.36006V0H31.165V4.36006H25.6417ZM35.7513 9.21845C36.3329 8.91446 37.0242 8.62295 37.8279 8.34672C38.6303 8.0691 39.5034 7.8345 40.4445 7.64017C41.3857 7.41807 42.3407 7.25289 43.3096 7.14184C44.2785 7.00303 45.1919 6.93362 46.0497 6.93362C47.9598 6.93362 49.5519 7.19736 50.8262 7.72207C52.1269 8.2204 53.1097 9.02273 53.7746 10.1304C54.4395 11.2382 54.7712 12.6776 54.7712 14.4489V28.4022H49.4978V15.3622C49.4978 14.8361 49.4284 14.3378 49.291 13.8672C49.1522 13.3689 48.9176 12.94 48.5844 12.5805C48.2527 12.1932 47.796 11.9017 47.2143 11.7087C46.6327 11.4866 45.8859 11.377 44.9725 11.377C44.2799 11.377 43.5747 11.4464 42.8543 11.5852C42.1616 11.724 41.5536 11.9031 41.0275 12.1252V28.4036H35.7541V9.21845H35.7513ZM67.3406 29.0685C65.1807 29.0685 63.5344 28.5424 62.3989 27.4902C61.2634 26.4102 60.6957 24.8597 60.6957 22.8386V11.6254H57.4558V7.47221H60.6957V1.65879H66.1773V7.47221H70.9941V11.6254H66.1773V22.0071C66.1773 22.8372 66.33 23.4605 66.634 23.8755C66.9658 24.2906 67.5474 24.4988 68.3789 24.4988C68.8217 24.4988 69.2784 24.4294 69.749 24.2906C70.2473 24.1518 70.6623 23.9727 70.9955 23.7506V28.3189C70.4694 28.5951 69.8739 28.7894 69.2104 28.9005C68.5732 29.0115 67.9513 29.0671 67.342 29.0671L67.3406 29.0685ZM83.9271 29.0268C81.8505 29.0268 80.0238 28.5979 78.4455 27.74C76.895 26.8822 75.6901 25.6495 74.8322 24.0435C73.9744 22.4097 73.5454 20.4441 73.5454 18.1468C73.5454 14.4919 74.4172 11.6962 76.162 9.75843C77.9333 7.82062 80.4249 6.85172 83.637 6.85172C85.9066 6.85172 87.7486 7.35005 89.1603 8.34672C90.572 9.34338 91.5965 10.769 92.2336 12.6235C92.8707 14.478 93.1747 16.6796 93.147 19.2267H76.9505L76.5771 15.6551H88.9521L87.9554 17.1501C87.8999 14.9625 87.5126 13.3981 86.7922 12.4569C86.0995 11.488 84.9793 11.0036 83.4288 11.0036C82.4877 11.0036 81.6715 11.2257 80.9788 11.6685C80.2861 12.0835 79.7461 12.7901 79.3589 13.7867C78.9993 14.7834 78.8189 16.1535 78.8189 17.8983C78.8189 20.0582 79.3172 21.7045 80.3139 22.84C81.3383 23.9755 82.9027 24.5432 85.0071 24.5432C85.8649 24.5432 86.6825 24.4599 87.4571 24.2934C88.2594 24.1268 88.9938 23.9199 89.6587 23.6701C90.3513 23.3925 90.9454 23.144 91.4438 22.9219V27.6151C90.4471 28.0301 89.3394 28.3619 88.122 28.6118C86.9032 28.888 85.5054 29.0268 83.9271 29.0268ZM104.759 29.0268C102.793 28.9435 101.119 28.5146 99.7336 27.74C98.3496 26.9377 97.2835 25.7745 96.5367 24.2517C95.8163 22.7012 95.4568 20.805 95.4568 18.5618C95.4568 16.209 95.7469 14.2837 96.3285 12.7887C96.9101 11.2659 97.7125 10.0888 98.7369 9.25871C99.7891 8.40085 101.008 7.80535 102.392 7.4736C103.804 7.11407 105.312 6.93362 106.918 6.93362C108.524 6.93362 109.95 7.14184 111.195 7.55688C112.469 7.97193 113.466 8.59519 114.185 9.42528C114.933 10.2276 115.307 11.2382 115.307 12.4569V28.8186C115.307 30.1193 115.1 31.2825 114.684 32.3069C114.296 33.3591 113.673 34.2586 112.815 35.0068C111.985 35.755 110.919 36.3213 109.618 36.71C108.344 37.1251 106.835 37.3333 105.092 37.3333C103.348 37.3333 101.991 37.2083 100.772 36.9599C99.5545 36.7114 98.5856 36.4338 97.8652 36.1298V31.3949C98.2802 31.5615 98.8479 31.7545 99.5684 31.9765C100.315 32.225 101.145 32.4332 102.06 32.5998C102.973 32.7664 103.887 32.8483 104.8 32.8483C106.267 32.8483 107.375 32.6539 108.123 32.2667C108.898 31.8794 109.424 31.3672 109.7 30.73C109.978 30.1206 110.117 29.4294 110.117 28.6534V25.3733L111.32 26.2867C110.85 26.8128 110.268 27.2833 109.577 27.6984C108.912 28.1134 108.164 28.4327 107.333 28.6534C106.531 28.9019 105.672 29.0268 104.759 29.0268ZM105.88 24.9166C106.655 24.9166 107.403 24.8333 108.123 24.6681C108.842 24.4738 109.507 24.1976 110.117 23.838V13.5799C110.117 12.915 109.936 12.4305 109.577 12.1265C109.244 11.7948 108.787 11.5727 108.205 11.4616C107.651 11.3228 107.057 11.2534 106.42 11.2534C104.925 11.2534 103.762 11.5574 102.932 12.1668C102.128 12.7762 101.562 13.6202 101.229 14.7001C100.925 15.7801 100.772 16.9836 100.772 18.3134C100.772 20.3067 101.215 21.9127 102.102 23.1301C102.987 24.3211 104.246 24.9152 105.88 24.9152V24.9166ZM119.665 28.4049V9.50857C120.053 9.23095 120.73 8.89919 121.699 8.5119C122.696 8.09686 123.845 7.73734 125.147 7.43195C126.448 7.10019 127.762 6.93362 129.092 6.93362C130.089 6.93362 130.877 7.01691 131.459 7.18209C132.068 7.3209 132.553 7.49997 132.912 7.72207V11.7087C132.358 11.6254 131.721 11.556 131.002 11.5005C130.31 11.445 129.59 11.4311 128.842 11.4589C128.123 11.4589 127.417 11.4866 126.724 11.5422C126.06 11.5977 125.465 11.6671 124.939 11.7504V28.4036H119.665V28.4049ZM135.738 28.4049V7.68181H141.013L141.055 28.4049H135.738ZM135.615 4.36006V0H141.138V4.36006H135.615ZM151.87 29.0268C150.375 29.0268 149.102 28.8602 148.05 28.5285C146.997 28.2245 145.987 27.8497 145.018 27.4069V22.6304C145.655 23.0454 146.319 23.4466 147.011 23.8353C147.73 24.1948 148.492 24.4863 149.295 24.707C150.126 24.9291 151.026 25.0388 151.995 25.0388C153.075 25.0388 153.877 24.8305 154.403 24.4155C154.957 24.0005 155.233 23.4744 155.233 22.8372C155.233 22.2834 155.026 21.8544 154.611 21.5504C154.196 21.2187 153.656 20.9411 152.991 20.7203C152.326 20.4983 151.621 20.2775 150.873 20.0554C150.182 19.8889 149.475 19.6682 148.755 19.3905C148.063 19.1143 147.426 18.7395 146.845 18.2689C146.263 17.7984 145.793 17.2029 145.433 16.4824C145.101 15.7356 144.935 14.8348 144.935 13.7826C144.935 12.536 145.185 11.4852 145.683 10.626C146.181 9.76815 146.831 9.07548 147.635 8.54938C148.465 7.99553 149.35 7.60824 150.291 7.38615C151.26 7.13767 152.203 7.02662 153.116 7.05439C154.721 7.08215 156.009 7.26122 156.978 7.59436C157.947 7.92612 158.86 8.32867 159.719 8.79924V13.1177C158.749 12.5916 157.808 12.121 156.895 11.7059C156.009 11.2631 154.971 11.041 153.78 11.041C152.701 11.041 151.856 11.2354 151.246 11.6227C150.666 11.9822 150.375 12.4944 150.375 13.1593C150.375 13.7409 150.555 14.2115 150.915 14.571C151.274 14.9028 151.745 15.1804 152.326 15.4011C152.936 15.5954 153.587 15.7884 154.278 15.9827C154.971 16.1771 155.677 16.3978 156.396 16.6476C157.144 16.8683 157.836 17.2015 158.473 17.6443C159.138 18.0593 159.664 18.641 160.051 19.3891C160.466 20.136 160.674 21.1062 160.674 22.2959C160.647 23.9297 160.204 25.2442 159.345 26.2409C158.515 27.2098 157.435 27.9163 156.106 28.3591C154.776 28.8019 153.365 29.024 151.87 29.024V29.0268Z" fill="#0078AA"></path></svg>